<svg width="19" height="22" viewBox="0 0 19 22" fill="none" xmlns="http://www.w3.org/2000/svg">
<path d="M18.7372 7.76562H14.3821C14.3026 7.20218 14.1402 6.7017 13.8949 6.2642C13.6496 5.82007 13.3348 5.44223 12.9503 5.13068C12.5658 4.81913 12.1217 4.58049 11.6179 4.41477C11.1207 4.24905 10.5805 4.16619 9.99716 4.16619C8.94318 4.16619 8.0251 4.42803 7.2429 4.9517C6.4607 5.46875 5.85417 6.22443 5.4233 7.21875C4.99242 8.20644 4.77699 9.40625 4.77699 10.8182C4.77699 12.2699 4.99242 13.4896 5.4233 14.4773C5.8608 15.465 6.47064 16.2107 7.25284 16.7145C8.03504 17.2183 8.93987 17.4702 9.96733 17.4702C10.544 17.4702 11.0777 17.3939 11.5682 17.2415C12.0653 17.089 12.5062 16.867 12.8906 16.5753C13.2751 16.277 13.5933 15.9157 13.8452 15.4915C14.1037 15.0672 14.2827 14.5833 14.3821 14.0398L18.7372 14.0597C18.6245 14.9943 18.3428 15.8958 17.892 16.7642C17.4479 17.6259 16.848 18.3982 16.0923 19.081C15.3433 19.7571 14.4484 20.294 13.4077 20.6918C12.3736 21.0829 11.2036 21.2784 9.89773 21.2784C8.08144 21.2784 6.45739 20.8674 5.02557 20.0455C3.60038 19.2235 2.47348 18.0336 1.64489 16.4759C0.822917 14.9181 0.411932 13.0322 0.411932 10.8182C0.411932 8.59754 0.829546 6.70833 1.66477 5.15057C2.5 3.5928 3.63352 2.40625 5.06534 1.59091C6.49716 0.768939 8.10795 0.357954 9.89773 0.357954C11.0777 0.357954 12.1714 0.523674 13.179 0.855113C14.1932 1.18655 15.0914 1.67045 15.8736 2.30682C16.6558 2.93655 17.2921 3.70881 17.7827 4.62358C18.2798 5.53835 18.598 6.5857 18.7372 7.76562Z" fill="#2C63B6"/>
</svg>
